<?xml version="1.0" encoding="utf-8"?>
<svg width="20px" height="17px" viewBox="0 0 20 17" version="1.1" xmlns:xlink="http://www.w3.org/1999/xlink" xmlns="http://www.w3.org/2000/svg">
  <g id="Group">
    <path d="M18.7468 3.28084L15.472 3.28084C15.456 3.256 15.4399 3.23073 15.4162 3.21095L11.6721 0.0697331C11.5453 -0.0362048 11.3562 -0.0195009 11.2501 0.106658C11.1435 0.233475 11.1602 0.422493 11.287 0.528651L14.5673 3.28062L5.21338 3.28062L8.4935 0.528651C8.62032 0.422493 8.6368 0.233256 8.5302 0.106658C8.42471 -0.0195009 8.23547 -0.0362048 8.10821 0.0697331L4.36456 3.21073C4.3406 3.23073 4.32477 3.25578 4.30873 3.28062L1.03388 3.28062C0.463533 3.28084 0 3.74459 0 4.31494L0 6.23194C0 6.80207 0.463533 7.26582 1.03388 7.26582L1.62072 7.26582L2.42273 15.3099C2.48229 15.9 2.97417 16.3451 3.56694 16.3451L16.2138 16.3451C16.8068 16.3451 17.2989 15.9 17.358 15.3096L18.16 7.26604L18.7471 7.26604C19.3172 7.26604 19.7812 6.80251 19.7812 6.23216L19.7812 4.31516C19.7809 3.74459 19.317 3.28084 18.7468 3.28084ZM16.7613 15.2496C16.7329 15.5323 16.4975 15.7455 16.2136 15.7455L3.56672 15.7455C3.28298 15.7455 3.04736 15.5321 3.01901 15.2496L2.22294 7.2656L17.5573 7.2656L16.7613 15.2496ZM19.1816 6.23194C19.1816 6.47129 18.9866 6.66646 18.7468 6.66646L17.8883 6.66646L1.89194 6.66646L1.03388 6.66646C0.794535 6.66646 0.599363 6.47151 0.599363 6.23194L0.599363 4.31494C0.599363 4.07515 0.794315 3.8802 1.03388 3.8802L18.7471 3.8802C18.9866 3.8802 19.1818 4.07515 19.1818 4.31494L19.1818 6.23194L19.1816 6.23194Z" id="Shape" fill="#000000" stroke="none" />
    <path d="M5.54746 13.8952C5.71296 13.8952 5.84702 13.7612 5.84702 13.5954L5.84702 9.24973C5.84702 9.08402 5.71296 8.94995 5.54746 8.94995C5.38175 8.94995 5.24768 9.08402 5.24768 9.24973L5.24768 13.5952C5.24768 13.7612 5.38175 13.8952 5.54746 13.8952Z" id="Shape" fill="#000000" fill-rule="evenodd" stroke="none" />
    <path d="M8.4426 13.8952C8.60832 13.8952 8.74238 13.7612 8.74238 13.5954L8.74238 9.24973C8.74238 9.08402 8.60832 8.94995 8.4426 8.94995C8.27689 8.94995 8.14282 9.08402 8.14282 9.24973L8.14282 13.5952C8.14282 13.7612 8.27689 13.8952 8.4426 13.8952Z" id="Shape" fill="#000000" fill-rule="evenodd" stroke="none" />
    <path d="M11.3374 13.8952C11.5031 13.8952 11.6372 13.7612 11.6372 13.5954L11.6372 9.24973C11.6372 9.08402 11.5031 8.94995 11.3374 8.94995C11.1719 8.94995 11.0378 9.08402 11.0378 9.24973L11.0378 13.5952C11.0378 13.7612 11.1719 13.8952 11.3374 13.8952Z" id="Shape" fill="#000000" fill-rule="evenodd" stroke="none" />
    <path d="M14.2323 13.8952C14.3978 13.8952 14.5321 13.7612 14.5321 13.5954L14.5321 9.24973C14.5321 9.08402 14.398 8.94995 14.2323 8.94995C14.0666 8.94995 13.9325 9.08402 13.9325 9.24973L13.9325 13.5952C13.9325 13.7612 14.0666 13.8952 14.2323 13.8952Z" id="Shape" fill="#000000" fill-rule="evenodd" stroke="none" />
  </g>
</svg>