<?xml version="1.0" encoding="utf-8"?>
<svg width="48px" height="48px" viewBox="0 0 48 48" version="1.1" xmlns:xlink="http://www.w3.org/1999/xlink" xmlns="http://www.w3.org/2000/svg">
  <g id="facebook" opacity="0.53999996">
    <g id="004-facebook-logo" transform="translate(15 8)">
      <path d="M-1109.48 -2108.99L-1113.59 -2109C-1118.21 -2109 -1121.19 -2105.94 -1121.19 -2101.2L-1121.19 -2097.6L-1125.33 -2097.6C-1125.69 -2097.6 -1125.97 -2097.31 -1125.97 -2096.95L-1125.97 -2091.74C-1125.97 -2091.38 -1125.68 -2091.09 -1125.33 -2091.09L-1121.19 -2091.09L-1121.19 -2077.94C-1121.19 -2077.58 -1120.9 -2077.29 -1120.55 -2077.29L-1115.15 -2077.29C-1114.8 -2077.29 -1114.51 -2077.58 -1114.51 -2077.94L-1114.51 -2091.09L-1109.67 -2091.09C-1109.31 -2091.09 -1109.02 -2091.38 -1109.02 -2091.74L-1109.02 -2096.95C-1109.02 -2097.12 -1109.09 -2097.29 -1109.21 -2097.41C-1109.33 -2097.53 -1109.5 -2097.6 -1109.67 -2097.6L-1114.51 -2097.6L-1114.51 -2100.65C-1114.51 -2102.11 -1114.16 -2102.86 -1112.25 -2102.86L-1109.48 -2102.86C-1109.12 -2102.86 -1108.83 -2103.15 -1108.83 -2103.51L-1108.83 -2108.35C-1108.83 -2108.7 -1109.12 -2108.99 -1109.48 -2108.99Z" id="Shape" fill="#000000" fill-rule="evenodd" stroke="none" />
    </g>
  </g>
</svg>