<?xml version="1.0" encoding="utf-8"?>
<svg width="48px" height="48px" viewBox="0 0 48 48" version="1.1" xmlns:xlink="http://www.w3.org/1999/xlink" xmlns="http://www.w3.org/2000/svg">
  <g id="google+" opacity="0.53999996">
    <g id="001-google-plus" transform="translate(8 12)">
      <path d="M-1029.45 -2098.08L-1040.91 -2098.08L-1040.91 -2094.26L-1033.92 -2094.26C-1034.96 -2090.94 -1038.06 -2088.53 -1041.72 -2088.53C-1046.24 -2088.53 -1049.91 -2092.19 -1049.91 -2096.71C-1049.91 -2101.23 -1046.24 -2104.9 -1041.72 -2104.9C-1039.45 -2104.9 -1037.39 -2103.97 -1035.91 -2102.47L-1033.13 -2105.48C-1035.35 -2107.65 -1038.38 -2108.99 -1041.72 -2108.99C-1048.5 -2108.99 -1054 -2103.49 -1054 -2096.71C-1054 -2089.93 -1048.5 -2084.44 -1041.72 -2084.44C-1035.79 -2084.44 -1030.59 -2088.65 -1029.45 -2094.26L-1029.45 -2098.08L-1029.45 -2098.08L-1029.45 -2098.08Z" id="Shape" fill="#000000" fill-rule="evenodd" stroke="none" />
      <path d="M-1022.01 -2098.08L-1024.35 -2098.08L-1024.35 -2100.43L-1026.36 -2100.43L-1026.36 -2098.08L-1028.71 -2098.08L-1028.71 -2096.07L-1026.36 -2096.07L-1026.36 -2093.73L-1024.35 -2093.73L-1024.35 -2096.07L-1022.01 -2096.07L-1022.01 -2098.08Z" id="Shape" fill="#000000" fill-rule="evenodd" stroke="none" />
    </g>
  </g>
</svg>