<?xml version="1.0" encoding="utf-8"?>
<svg width="48px" height="48px" viewBox="0 0 48 48" version="1.1" xmlns:xlink="http://www.w3.org/1999/xlink" xmlns="http://www.w3.org/2000/svg">
  <defs>
    <rect width="48" height="48" id="artboard_1" />
    <clipPath id="clip_1">
      <use xlink:href="#artboard_1" clip-rule="evenodd" />
    </clipPath>
  </defs>
  <g id="_variousinstagram" clip-path="url(#clip_1)">
    <g id="002-instagram-logo" transform="translate(8 8)">
      <path d="M23.0411 0L8.78193 0C3.93958 0 0 3.93976 0 8.78212L0 23.0413C0 27.8839 3.93958 31.8234 8.78193 31.8234L23.0411 31.8234C27.8839 31.8234 31.8234 27.8837 31.8234 23.0413L31.8234 8.78212C31.8236 3.93976 27.8839 0 23.0411 0ZM29.0001 23.0413C29.0001 26.327 26.327 28.9999 23.0413 28.9999L8.78193 28.9999C5.49647 29.0001 2.82353 26.327 2.82353 23.0413L2.82353 8.78212C2.82353 5.49666 5.49647 2.82353 8.78193 2.82353L23.0411 2.82353C26.3268 2.82353 28.9999 5.49666 28.9999 8.78212L28.9999 23.0413L29.0001 23.0413Z" id="Shape" fill="#000000" stroke="none" />
      <path d="M15.9117 7.712C11.3901 7.712 7.71162 11.3905 7.71162 15.9121C7.71162 20.4335 11.3901 24.1118 15.9117 24.1118C20.4333 24.1118 24.1118 20.4335 24.1118 15.9121C24.1118 11.3905 20.4333 7.712 15.9117 7.712ZM15.9117 21.2881C12.9472 21.2881 10.5352 18.8764 10.5352 15.9119C10.5352 12.9472 12.947 10.5353 15.9117 10.5353C18.8764 10.5353 21.2883 12.9472 21.2883 15.9119C21.2883 18.8764 18.8762 21.2881 15.9117 21.2881Z" id="Shape" fill="#000000" stroke="none" />
      <path d="M24.4557 5.31784C23.9117 5.31784 23.3773 5.53807 22.9931 5.92395C22.6071 6.30795 22.3851 6.84254 22.3851 7.38842C22.3851 7.93261 22.6072 8.46701 22.9931 8.85289C23.3771 9.23689 23.9117 9.45901 24.4557 9.45901C25.0016 9.45901 25.5343 9.23689 25.9202 8.85289C26.3061 8.46701 26.5263 7.93242 26.5263 7.38842C26.5263 6.84254 26.3061 6.30795 25.9202 5.92395C25.5362 5.53807 25.0016 5.31784 24.4557 5.31784Z" id="Shape" fill="#000000" fill-rule="evenodd" stroke="none" />
    </g>
  </g>
</svg>