<?xml version="1.0" encoding="utf-8"?>
<svg width="48px" height="48px" viewBox="0 0 48 48" version="1.1" xmlns:xlink="http://www.w3.org/1999/xlink" xmlns="http://www.w3.org/2000/svg">
  <g id="twitter" opacity="0.53999996">
    <g id="003-twitter-logo-silhouette" transform="translate(8 11)">
      <path d="M-1238 -2105.9C-1239.18 -2105.38 -1240.44 -2105.03 -1241.77 -2104.87C-1240.41 -2105.68 -1239.38 -2106.97 -1238.88 -2108.5C-1240.16 -2107.75 -1241.56 -2107.2 -1243.06 -2106.9C-1244.25 -2108.18 -1245.96 -2108.98 -1247.85 -2108.98C-1251.47 -2108.98 -1254.41 -2106.04 -1254.41 -2102.41C-1254.41 -2101.9 -1254.35 -2101.4 -1254.24 -2100.92C-1259.7 -2101.19 -1264.53 -2103.81 -1267.77 -2107.78C-1268.34 -2106.81 -1268.66 -2105.68 -1268.66 -2104.48C-1268.66 -2102.2 -1267.5 -2100.19 -1265.74 -2099.01C-1266.81 -2099.05 -1267.83 -2099.35 -1268.71 -2099.84L-1268.71 -2099.76C-1268.71 -2096.58 -1266.45 -2093.92 -1263.45 -2093.32C-1264 -2093.17 -1264.58 -2093.09 -1265.18 -2093.09C-1265.6 -2093.09 -1266.01 -2093.13 -1266.41 -2093.21C-1265.58 -2090.6 -1263.15 -2088.7 -1260.28 -2088.65C-1262.53 -2086.89 -1265.36 -2085.85 -1268.43 -2085.85C-1268.96 -2085.85 -1269.49 -2085.88 -1270 -2085.94C-1267.09 -2084.07 -1263.65 -2082.98 -1259.94 -2082.98C-1247.86 -2082.98 -1241.26 -2092.99 -1241.26 -2101.66L-1241.28 -2102.51C-1239.99 -2103.43 -1238.88 -2104.59 -1238 -2105.9Z" id="Shape" fill="#000000" fill-rule="evenodd" stroke="none" />
    </g>
  </g>
</svg>